<svg width="132" height="122" viewBox="0 0 132 122" fill="none" xmlns="http://www.w3.org/2000/svg">
<mask id="path-1-inside-1_54_5" fill="white">
<path d="M107.569 45.5077C109.136 47.2544 109.999 49.4999 109.999 51.8269C109.999 54.1539 109.136 56.3994 107.569 58.1461L106.431 59.413L107.436 60.5338C108.572 61.8007 109.443 63.3179 109.788 64.985C111.193 71.7726 105.286 77.6802 98.5 76.273C96.833 75.9279 95.3158 75.0574 94.0489 73.9213L92.93 72.9143L91.6631 74.0522C88.1868 77.172 82.501 77.172 79.0247 74.0522L77.7578 72.9143L76.4909 74.0522C73.0146 77.172 67.3289 77.172 63.8525 74.0522L62.5857 72.9143L61.3188 74.0522C57.8425 77.172 52.1567 77.172 48.6804 74.0522L47.4135 72.9143L46.1466 74.0522C42.6703 77.172 36.9846 77.172 33.5082 74.0522L32.2414 72.9143L30.9745 74.0522C28.1658 76.5746 23.9953 77.1928 20.5512 75.5353L15.6715 73.1874L18.0194 78.0671C18.6471 79.3719 18.9657 80.7526 18.9657 82.1712C18.9657 83.5898 18.6471 84.9724 18.0194 86.2753L15.6715 91.155L20.5512 88.8071C23.9934 87.1477 28.1639 87.7678 30.9745 90.2902L32.2414 91.4281L33.5082 90.2902C36.9846 87.1704 42.6703 87.1704 46.1466 90.2902L47.4135 91.4281L48.6804 90.2902C52.1567 87.1704 57.8425 87.1704 61.3188 90.2902L62.5857 91.4281L63.8525 90.2902C67.3289 87.1704 73.0146 87.1704 76.4909 90.2902L77.7578 91.4281L78.7781 90.5121C80.2878 89.1561 82.1445 88.1794 84.1586 87.9347C90.2142 87.197 95.3367 92.2095 94.7867 98.2328C94.4984 101.392 92.5033 104.146 89.759 105.737L89.1369 106.096V122H85.3439C83.2482 122 81.5509 120.303 81.5509 118.207V106.096L80.6045 105.548C80.045 105.223 79.5197 104.842 79.0399 104.41L77.7578 103.259L76.4909 104.397C73.0146 107.516 67.3289 107.516 63.8525 104.397L62.5857 103.259L61.3188 104.397C57.8425 107.516 52.1567 107.516 48.6804 104.397L47.4135 103.259L46.1466 104.397C42.6703 107.516 36.9846 107.516 33.5082 104.397L32.2414 103.259L30.9745 104.397C27.4982 107.516 21.8124 107.516 18.3361 104.397L17.0692 103.259L15.9484 104.264C14.6815 105.4 13.1643 106.27 11.4972 106.615C4.7096 108.021 -1.19805 102.113 0.209162 95.3274C0.554329 93.6603 1.42483 92.1431 2.56085 90.8762L3.566 89.7554L2.42809 88.4885C0.863462 86.7437 0.000545185 84.5001 0.000545185 82.1712C0.000545185 79.8423 0.863461 77.5987 2.42999 75.852L3.5679 74.5851L2.56274 73.4643C1.42673 72.1974 0.556225 70.6802 0.211059 69.0132C-1.19426 62.2255 4.71339 56.3179 11.4991 57.7251C13.1662 58.0702 14.6834 58.9407 15.9503 60.0768L17.0692 61.0838L18.3361 59.9459C21.8124 56.8261 27.4982 56.8261 30.9745 59.9459L32.2414 61.0838L33.5082 59.9459C36.9846 56.8261 42.6703 56.8261 46.1466 59.9459L47.4135 61.0838L48.6804 59.9459C52.1567 56.8261 57.8425 56.8261 61.3188 59.9459L62.5857 61.0838L63.8525 59.9459C67.3289 56.8261 73.0146 56.8261 76.4909 59.9459L77.7578 61.0838L79.0247 59.9459C81.8353 57.4254 86.0058 56.8072 89.448 58.4628L94.3277 60.8107L91.9798 55.931C91.3521 54.6281 91.0335 53.2455 91.0335 51.8269C91.0335 50.4083 91.3521 49.0257 91.9798 47.7228L94.3277 42.8431L89.448 45.191C86.0039 46.8485 81.8353 46.2284 79.0247 43.7079L77.7578 42.57L76.4909 43.7079C73.0146 46.8277 67.3289 46.8277 63.8525 43.7079L62.5857 42.57L61.3188 43.7079C57.8425 46.8277 52.1567 46.8277 48.6804 43.7079L47.4135 42.57L46.1466 43.7079C42.6703 46.8277 36.9846 46.8277 33.5082 43.7079L32.2414 42.57L31.221 43.486C29.7114 44.842 27.8547 45.8187 25.8406 46.0634C19.785 46.8011 14.6625 41.7886 15.2125 35.7653C15.5008 32.6057 17.4959 29.8519 20.2402 28.2608L20.8623 27.9042V12H24.6553C26.7509 12 28.4483 13.6974 28.4483 15.793V27.9042L29.3776 28.4428C29.9485 28.7728 30.4833 29.1616 30.9745 29.6035L32.2414 30.7414L33.5082 29.6035C36.9846 26.4837 42.6703 26.4837 46.1466 29.6035L47.4135 30.7414L48.6804 29.6035C52.1567 26.4837 57.8425 26.4837 61.3188 29.6035L62.5857 30.7414L63.8525 29.6035C67.3289 26.4837 73.0146 26.4837 76.4909 29.6035L77.7578 30.7414L79.0247 29.6035C82.501 26.4837 88.1868 26.4837 91.6631 29.6035L92.93 30.7414L94.0508 29.7362C95.3177 28.6002 96.8349 27.7297 98.5019 27.3846C105.29 25.9792 111.197 31.8869 109.79 38.6726C109.445 40.3397 108.574 41.8569 107.438 43.1238L106.433 44.2446L107.569 45.5077Z"/>
</mask>
<path d="M107.569 45.5077C109.136 47.2544 109.999 49.4999 109.999 51.8269C109.999 54.1539 109.136 56.3994 107.569 58.1461L106.431 59.413L107.436 60.5338C108.572 61.8007 109.443 63.3179 109.788 64.985C111.193 71.7726 105.286 77.6802 98.5 76.273C96.833 75.9279 95.3158 75.0574 94.0489 73.9213L92.93 72.9143L91.6631 74.0522C88.1868 77.172 82.501 77.172 79.0247 74.0522L77.7578 72.9143L76.4909 74.0522C73.0146 77.172 67.3289 77.172 63.8525 74.0522L62.5857 72.9143L61.3188 74.0522C57.8425 77.172 52.1567 77.172 48.6804 74.0522L47.4135 72.9143L46.1466 74.0522C42.6703 77.172 36.9846 77.172 33.5082 74.0522L32.2414 72.9143L30.9745 74.0522C28.1658 76.5746 23.9953 77.1928 20.5512 75.5353L15.6715 73.1874L18.0194 78.0671C18.6471 79.3719 18.9657 80.7526 18.9657 82.1712C18.9657 83.5898 18.6471 84.9724 18.0194 86.2753L15.6715 91.155L20.5512 88.8071C23.9934 87.1477 28.1639 87.7678 30.9745 90.2902L32.2414 91.4281L33.5082 90.2902C36.9846 87.1704 42.6703 87.1704 46.1466 90.2902L47.4135 91.4281L48.6804 90.2902C52.1567 87.1704 57.8425 87.1704 61.3188 90.2902L62.5857 91.4281L63.8525 90.2902C67.3289 87.1704 73.0146 87.1704 76.4909 90.2902L77.7578 91.4281L78.7781 90.5121C80.2878 89.1561 82.1445 88.1794 84.1586 87.9347C90.2142 87.197 95.3367 92.2095 94.7867 98.2328C94.4984 101.392 92.5033 104.146 89.759 105.737L89.1369 106.096V122H85.3439C83.2482 122 81.5509 120.303 81.5509 118.207V106.096L80.6045 105.548C80.045 105.223 79.5197 104.842 79.0399 104.41L77.7578 103.259L76.4909 104.397C73.0146 107.516 67.3289 107.516 63.8525 104.397L62.5857 103.259L61.3188 104.397C57.8425 107.516 52.1567 107.516 48.6804 104.397L47.4135 103.259L46.1466 104.397C42.6703 107.516 36.9846 107.516 33.5082 104.397L32.2414 103.259L30.9745 104.397C27.4982 107.516 21.8124 107.516 18.3361 104.397L17.0692 103.259L15.9484 104.264C14.6815 105.4 13.1643 106.27 11.4972 106.615C4.7096 108.021 -1.19805 102.113 0.209162 95.3274C0.554329 93.6603 1.42483 92.1431 2.56085 90.8762L3.566 89.7554L2.42809 88.4885C0.863462 86.7437 0.000545185 84.5001 0.000545185 82.1712C0.000545185 79.8423 0.863461 77.5987 2.42999 75.852L3.5679 74.5851L2.56274 73.4643C1.42673 72.1974 0.556225 70.6802 0.211059 69.0132C-1.19426 62.2255 4.71339 56.3179 11.4991 57.7251C13.1662 58.0702 14.6834 58.9407 15.9503 60.0768L17.0692 61.0838L18.3361 59.9459C21.8124 56.8261 27.4982 56.8261 30.9745 59.9459L32.2414 61.0838L33.5082 59.9459C36.9846 56.8261 42.6703 56.8261 46.1466 59.9459L47.4135 61.0838L48.6804 59.9459C52.1567 56.8261 57.8425 56.8261 61.3188 59.9459L62.5857 61.0838L63.8525 59.9459C67.3289 56.8261 73.0146 56.8261 76.4909 59.9459L77.7578 61.0838L79.0247 59.9459C81.8353 57.4254 86.0058 56.8072 89.448 58.4628L94.3277 60.8107L91.9798 55.931C91.3521 54.6281 91.0335 53.2455 91.0335 51.8269C91.0335 50.4083 91.3521 49.0257 91.9798 47.7228L94.3277 42.8431L89.448 45.191C86.0039 46.8485 81.8353 46.2284 79.0247 43.7079L77.7578 42.57L76.4909 43.7079C73.0146 46.8277 67.3289 46.8277 63.8525 43.7079L62.5857 42.57L61.3188 43.7079C57.8425 46.8277 52.1567 46.8277 48.6804 43.7079L47.4135 42.57L46.1466 43.7079C42.6703 46.8277 36.9846 46.8277 33.5082 43.7079L32.2414 42.57L31.221 43.486C29.7114 44.842 27.8547 45.8187 25.8406 46.0634C19.785 46.8011 14.6625 41.7886 15.2125 35.7653C15.5008 32.6057 17.4959 29.8519 20.2402 28.2608L20.8623 27.9042V12H24.6553C26.7509 12 28.4483 13.6974 28.4483 15.793V27.9042L29.3776 28.4428C29.9485 28.7728 30.4833 29.1616 30.9745 29.6035L32.2414 30.7414L33.5082 29.6035C36.9846 26.4837 42.6703 26.4837 46.1466 29.6035L47.4135 30.7414L48.6804 29.6035C52.1567 26.4837 57.8425 26.4837 61.3188 29.6035L62.5857 30.7414L63.8525 29.6035C67.3289 26.4837 73.0146 26.4837 76.4909 29.6035L77.7578 30.7414L79.0247 29.6035C82.501 26.4837 88.1868 26.4837 91.6631 29.6035L92.93 30.7414L94.0508 29.7362C95.3177 28.6002 96.8349 27.7297 98.5019 27.3846C105.29 25.9792 111.197 31.8869 109.79 38.6726C109.445 40.3397 108.574 41.8569 107.438 43.1238L106.433 44.2446L107.569 45.5077Z" stroke="white" stroke-opacity="0.15" mask="url(#path-1-inside-1_54_5)"/>
<g filter="url(#filter0_d_54_5)">
<mask id="path-2-inside-2_54_5" fill="white">
<path d="M127.569 35.5077C129.136 37.2544 129.999 39.4999 129.999 41.8269C129.999 44.1539 129.136 46.3994 127.569 48.1461L126.431 49.413L127.436 50.5338C128.572 51.8007 129.443 53.3179 129.788 54.985C131.193 61.7726 125.286 67.6802 118.5 66.273C116.833 65.9279 115.316 65.0574 114.049 63.9213L112.93 62.9143L111.663 64.0522C108.187 67.172 102.501 67.172 99.0247 64.0522L97.7578 62.9143L96.4909 64.0522C93.0146 67.172 87.3289 67.172 83.8525 64.0522L82.5857 62.9143L81.3188 64.0522C77.8425 67.172 72.1567 67.172 68.6804 64.0522L67.4135 62.9143L66.1466 64.0522C62.6703 67.172 56.9846 67.172 53.5082 64.0522L52.2414 62.9143L50.9745 64.0522C48.1658 66.5746 43.9953 67.1928 40.5512 65.5353L35.6715 63.1874L38.0194 68.0671C38.6471 69.3719 38.9657 70.7526 38.9657 72.1712C38.9657 73.5898 38.6471 74.9724 38.0194 76.2753L35.6715 81.155L40.5512 78.8071C43.9934 77.1477 48.1639 77.7678 50.9745 80.2902L52.2414 81.4281L53.5082 80.2902C56.9846 77.1704 62.6703 77.1704 66.1466 80.2902L67.4135 81.4281L68.6804 80.2902C72.1567 77.1704 77.8425 77.1704 81.3188 80.2902L82.5857 81.4281L83.8525 80.2902C87.3289 77.1704 93.0146 77.1704 96.4909 80.2902L97.7578 81.4281L98.7781 80.5121C100.288 79.1561 102.144 78.1794 104.159 77.9347C110.214 77.197 115.337 82.2095 114.787 88.2328C114.498 91.3924 112.503 94.1462 109.759 95.7374L109.137 96.0958V112H105.344C103.248 112 101.551 110.303 101.551 108.207V96.0958L100.604 95.5477C100.045 95.2234 99.5197 94.8422 99.0399 94.4098L97.7578 93.2586L96.4909 94.3965C93.0146 97.5163 87.3289 97.5163 83.8525 94.3965L82.5857 93.2586L81.3188 94.3965C77.8425 97.5163 72.1567 97.5163 68.6804 94.3965L67.4135 93.2586L66.1466 94.3965C62.6703 97.5163 56.9846 97.5163 53.5082 94.3965L52.2414 93.2586L50.9745 94.3965C47.4982 97.5163 41.8124 97.5163 38.3361 94.3965L37.0692 93.2586L35.9484 94.2638C34.6815 95.3998 33.1643 96.2703 31.4972 96.6154C24.7096 98.0208 18.8019 92.1131 20.2092 85.3274C20.5543 83.6603 21.4248 82.1431 22.5608 80.8762L23.566 79.7554L22.4281 78.4885C20.8635 76.7437 20.0005 74.5001 20.0005 72.1712C20.0005 69.8423 20.8635 67.5987 22.43 65.852L23.5679 64.5851L22.5627 63.4643C21.4267 62.1974 20.5562 60.6802 20.2111 59.0132C18.8057 52.2255 24.7134 46.3179 31.4991 47.7251C33.1662 48.0702 34.6834 48.9407 35.9503 50.0768L37.0692 51.0838L38.3361 49.9459C41.8124 46.8261 47.4982 46.8261 50.9745 49.9459L52.2414 51.0838L53.5082 49.9459C56.9846 46.8261 62.6703 46.8261 66.1466 49.9459L67.4135 51.0838L68.6804 49.9459C72.1567 46.8261 77.8425 46.8261 81.3188 49.9459L82.5857 51.0838L83.8525 49.9459C87.3289 46.8261 93.0146 46.8261 96.4909 49.9459L97.7578 51.0838L99.0247 49.9459C101.835 47.4254 106.006 46.8072 109.448 48.4628L114.328 50.8107L111.98 45.931C111.352 44.6281 111.033 43.2455 111.033 41.8269C111.033 40.4083 111.352 39.0257 111.98 37.7228L114.328 32.8431L109.448 35.191C106.004 36.8485 101.835 36.2284 99.0247 33.7079L97.7578 32.57L96.4909 33.7079C93.0146 36.8277 87.3289 36.8277 83.8525 33.7079L82.5857 32.57L81.3188 33.7079C77.8425 36.8277 72.1567 36.8277 68.6804 33.7079L67.4135 32.57L66.1466 33.7079C62.6703 36.8277 56.9846 36.8277 53.5082 33.7079L52.2414 32.57L51.221 33.486C49.7114 34.842 47.8547 35.8187 45.8406 36.0634C39.785 36.8011 34.6625 31.7886 35.2125 25.7653C35.5008 22.6057 37.4959 19.8519 40.2402 18.2608L40.8623 17.9042V2H44.6553C46.7509 2 48.4483 3.69738 48.4483 5.79304V17.9042L49.3776 18.4428C49.9485 18.7728 50.4833 19.1616 50.9745 19.6035L52.2414 20.7414L53.5082 19.6035C56.9846 16.4837 62.6703 16.4837 66.1466 19.6035L67.4135 20.7414L68.6804 19.6035C72.1567 16.4837 77.8425 16.4837 81.3188 19.6035L82.5857 20.7414L83.8525 19.6035C87.3289 16.4837 93.0146 16.4837 96.4909 19.6035L97.7578 20.7414L99.0247 19.6035C102.501 16.4837 108.187 16.4837 111.663 19.6035L112.93 20.7414L114.051 19.7362C115.318 18.6002 116.835 17.7297 118.502 17.3846C125.29 15.9792 131.197 21.8869 129.79 28.6726C129.445 30.3397 128.574 31.8569 127.438 33.1238L126.433 34.2446L127.569 35.5077Z"/>
</mask>
<path d="M127.569 35.5077C129.136 37.2544 129.999 39.4999 129.999 41.8269C129.999 44.1539 129.136 46.3994 127.569 48.1461L126.431 49.413L127.436 50.5338C128.572 51.8007 129.443 53.3179 129.788 54.985C131.193 61.7726 125.286 67.6802 118.5 66.273C116.833 65.9279 115.316 65.0574 114.049 63.9213L112.93 62.9143L111.663 64.0522C108.187 67.172 102.501 67.172 99.0247 64.0522L97.7578 62.9143L96.4909 64.0522C93.0146 67.172 87.3289 67.172 83.8525 64.0522L82.5857 62.9143L81.3188 64.0522C77.8425 67.172 72.1567 67.172 68.6804 64.0522L67.4135 62.9143L66.1466 64.0522C62.6703 67.172 56.9846 67.172 53.5082 64.0522L52.2414 62.9143L50.9745 64.0522C48.1658 66.5746 43.9953 67.1928 40.5512 65.5353L35.6715 63.1874L38.0194 68.0671C38.6471 69.3719 38.9657 70.7526 38.9657 72.1712C38.9657 73.5898 38.6471 74.9724 38.0194 76.2753L35.6715 81.155L40.5512 78.8071C43.9934 77.1477 48.1639 77.7678 50.9745 80.2902L52.2414 81.4281L53.5082 80.2902C56.9846 77.1704 62.6703 77.1704 66.1466 80.2902L67.4135 81.4281L68.6804 80.2902C72.1567 77.1704 77.8425 77.1704 81.3188 80.2902L82.5857 81.4281L83.8525 80.2902C87.3289 77.1704 93.0146 77.1704 96.4909 80.2902L97.7578 81.4281L98.7781 80.5121C100.288 79.1561 102.144 78.1794 104.159 77.9347C110.214 77.197 115.337 82.2095 114.787 88.2328C114.498 91.3924 112.503 94.1462 109.759 95.7374L109.137 96.0958V112H105.344C103.248 112 101.551 110.303 101.551 108.207V96.0958L100.604 95.5477C100.045 95.2234 99.5197 94.8422 99.0399 94.4098L97.7578 93.2586L96.4909 94.3965C93.0146 97.5163 87.3289 97.5163 83.8525 94.3965L82.5857 93.2586L81.3188 94.3965C77.8425 97.5163 72.1567 97.5163 68.6804 94.3965L67.4135 93.2586L66.1466 94.3965C62.6703 97.5163 56.9846 97.5163 53.5082 94.3965L52.2414 93.2586L50.9745 94.3965C47.4982 97.5163 41.8124 97.5163 38.3361 94.3965L37.0692 93.2586L35.9484 94.2638C34.6815 95.3998 33.1643 96.2703 31.4972 96.6154C24.7096 98.0208 18.8019 92.1131 20.2092 85.3274C20.5543 83.6603 21.4248 82.1431 22.5608 80.8762L23.566 79.7554L22.4281 78.4885C20.8635 76.7437 20.0005 74.5001 20.0005 72.1712C20.0005 69.8423 20.8635 67.5987 22.43 65.852L23.5679 64.5851L22.5627 63.4643C21.4267 62.1974 20.5562 60.6802 20.2111 59.0132C18.8057 52.2255 24.7134 46.3179 31.4991 47.7251C33.1662 48.0702 34.6834 48.9407 35.9503 50.0768L37.0692 51.0838L38.3361 49.9459C41.8124 46.8261 47.4982 46.8261 50.9745 49.9459L52.2414 51.0838L53.5082 49.9459C56.9846 46.8261 62.6703 46.8261 66.1466 49.9459L67.4135 51.0838L68.6804 49.9459C72.1567 46.8261 77.8425 46.8261 81.3188 49.9459L82.5857 51.0838L83.8525 49.9459C87.3289 46.8261 93.0146 46.8261 96.4909 49.9459L97.7578 51.0838L99.0247 49.9459C101.835 47.4254 106.006 46.8072 109.448 48.4628L114.328 50.8107L111.98 45.931C111.352 44.6281 111.033 43.2455 111.033 41.8269C111.033 40.4083 111.352 39.0257 111.98 37.7228L114.328 32.8431L109.448 35.191C106.004 36.8485 101.835 36.2284 99.0247 33.7079L97.7578 32.57L96.4909 33.7079C93.0146 36.8277 87.3289 36.8277 83.8525 33.7079L82.5857 32.57L81.3188 33.7079C77.8425 36.8277 72.1567 36.8277 68.6804 33.7079L67.4135 32.57L66.1466 33.7079C62.6703 36.8277 56.9846 36.8277 53.5082 33.7079L52.2414 32.57L51.221 33.486C49.7114 34.842 47.8547 35.8187 45.8406 36.0634C39.785 36.8011 34.6625 31.7886 35.2125 25.7653C35.5008 22.6057 37.4959 19.8519 40.2402 18.2608L40.8623 17.9042V2H44.6553C46.7509 2 48.4483 3.69738 48.4483 5.79304V17.9042L49.3776 18.4428C49.9485 18.7728 50.4833 19.1616 50.9745 19.6035L52.2414 20.7414L53.5082 19.6035C56.9846 16.4837 62.6703 16.4837 66.1466 19.6035L67.4135 20.7414L68.6804 19.6035C72.1567 16.4837 77.8425 16.4837 81.3188 19.6035L82.5857 20.7414L83.8525 19.6035C87.3289 16.4837 93.0146 16.4837 96.4909 19.6035L97.7578 20.7414L99.0247 19.6035C102.501 16.4837 108.187 16.4837 111.663 19.6035L112.93 20.7414L114.051 19.7362C115.318 18.6002 116.835 17.7297 118.502 17.3846C125.29 15.9792 131.197 21.8869 129.79 28.6726C129.445 30.3397 128.574 31.8569 127.438 33.1238L126.433 34.2446L127.569 35.5077Z" stroke="#FACA93" stroke-width="3" mask="url(#path-2-inside-2_54_5)"/>
</g>
<defs>
<filter id="filter0_d_54_5" x="18" y="0" width="113.999" height="114" filterUnits="userSpaceOnUse" color-interpolation-filters="sRGB">
<feFlood flood-opacity="0" result="BackgroundImageFix"/>
<feColorMatrix in="SourceAlpha" type="matrix" values="0 0 0 0 0 0 0 0 0 0 0 0 0 0 0 0 0 0 127 0" result="hardAlpha"/>
<feOffset/>
<feGaussianBlur stdDeviation="1"/>
<feColorMatrix type="matrix" values="0 0 0 0 1 0 0 0 0 1 0 0 0 0 1 0 0 0 0.2 0"/>
<feBlend mode="normal" in2="BackgroundImageFix" result="effect1_dropShadow_54_5"/>
<feBlend mode="normal" in="SourceGraphic" in2="effect1_dropShadow_54_5" result="shape"/>
</filter>
</defs>
</svg>
