<svg width="16" height="14" viewBox="0 0 16 14" fill="none" xmlns="http://www.w3.org/2000/svg">
<path d="M4.75 10V10.75C4.75 11.3467 4.98705 11.919 5.40901 12.341C5.83097 12.7629 6.40326 13 7 13H12.25C12.8467 13 13.419 12.7629 13.841 12.341C14.2629 11.919 14.5 11.3467 14.5 10.75V3.25C14.5 2.65326 14.2629 2.08097 13.841 1.65901C13.419 1.23705 12.8467 1 12.25 1H7C6.40326 1 5.83097 1.23705 5.40901 1.65901C4.98705 2.08097 4.75 2.65326 4.75 3.25V4M8.5 10L11.5 7L8.5 10ZM11.5 7L8.5 4L11.5 7ZM11.5 7H1H11.5Z" stroke="white" stroke-width="1.5" stroke-linecap="round" stroke-linejoin="round"/>
</svg>
