<svg width="126" height="122" viewBox="0 0 126 122" fill="none" xmlns="http://www.w3.org/2000/svg">
<g opacity="0.15">
<path d="M51.0018 17.9011C55.3256 13.5773 61.3095 11.7753 67.3875 12.3558C67.968 18.4338 66.166 24.4177 61.8422 28.7415C57.5184 33.0653 51.5345 34.8673 45.4565 34.2868C44.8761 28.2088 46.678 22.2249 51.0018 17.9011Z" stroke="white" stroke-width="0.5"/>
<path d="M57.8941 41.1155L57.8948 41.1152C61.8075 39.1268 65.9422 38.1335 70.1726 38.1335C88.3598 38.1335 103.278 56.826 103.278 79.9417C103.278 103.058 88.3597 121.75 70.2049 121.75C65.9424 121.75 61.84 120.757 57.9272 118.768L57.9265 118.768C54.1351 116.856 49.4252 116.856 45.6338 118.768L45.6332 118.768C41.7205 120.757 37.5857 121.75 33.3554 121.75C15.1681 121.75 0.25 103.057 0.25 79.9417C0.25 56.826 15.1681 38.1335 33.3554 38.1335C37.5859 38.1335 41.7203 39.1268 45.6001 41.1148L45.6015 41.1155C49.3928 43.0277 54.1028 43.0277 57.8941 41.1155ZM38.573 79.9417C38.573 81.7519 38.9427 83.4093 39.5497 84.6233C40.1489 85.8218 41.0222 86.6622 42.0582 86.6622C43.0943 86.6622 43.9675 85.8218 44.5667 84.6233C45.1738 83.4093 45.5435 81.7519 45.5435 79.9417C45.5435 78.1316 45.1738 76.4742 44.5667 75.2602C43.9675 74.0617 43.0943 73.2213 42.0582 73.2213C41.0222 73.2213 40.1489 74.0617 39.5497 75.2602C38.9427 76.4742 38.573 78.1316 38.573 79.9417ZM54.7492 79.9417C54.7492 81.7519 55.1189 83.4093 55.726 84.6233C56.3252 85.8218 57.1984 86.6622 58.2345 86.6622C59.2705 86.6622 60.1438 85.8218 60.743 84.6233C61.35 83.4093 61.7197 81.7519 61.7197 79.9417C61.7197 78.1316 61.35 76.4742 60.743 75.2602C60.1438 74.0617 59.2705 73.2213 58.2345 73.2213C57.1984 73.2213 56.3252 74.0617 55.726 75.2602C55.1189 76.4742 54.7492 78.1316 54.7492 79.9417Z" stroke="white" stroke-width="0.5"/>
</g>
<g filter="url(#filter0_d_54_4)">
<path d="M71.3554 8.25465C75.4619 4.14809 81.1196 2.36853 86.9256 2.81769C87.3748 8.62371 85.5952 14.2814 81.4887 18.388C77.3821 22.4945 71.7244 24.2741 65.9184 23.8249C65.4692 18.0189 67.2488 12.3612 71.3554 8.25465Z" stroke="#9CDABC" stroke-width="1.5"/>
<path d="M78.1193 31.562L78.1213 31.5609C81.9654 29.6074 86.0227 28.6335 90.1726 28.6335C107.982 28.6335 122.778 46.9881 122.778 69.9417C122.778 92.8959 107.982 111.25 90.2049 111.25C86.0231 111.25 81.9982 110.276 78.1537 108.323L78.1516 108.322C74.2187 106.338 69.3416 106.338 65.4087 108.322L65.4066 108.323C61.5626 110.276 57.5053 111.25 53.3554 111.25C35.546 111.25 20.75 92.8954 20.75 69.9417C20.75 46.9881 35.546 28.6335 53.3554 28.6335C57.5057 28.6335 61.5621 29.6075 65.372 31.5598L65.3763 31.5619C69.3093 33.5455 74.1863 33.5455 78.1193 31.562ZM58.073 69.9417C58.073 71.8133 58.4542 73.5503 59.1025 74.8469C59.7274 76.0966 60.7295 77.1622 62.0582 77.1622C63.387 77.1622 64.3891 76.0966 65.014 74.8469C65.6623 73.5503 66.0435 71.8133 66.0435 69.9417C66.0435 68.0702 65.6623 66.3332 65.014 65.0365C64.3891 63.7869 63.387 62.7213 62.0582 62.7213C60.7295 62.7213 59.7274 63.7869 59.1025 65.0365C58.4542 66.3332 58.073 68.0702 58.073 69.9417ZM74.2492 69.9417C74.2492 71.8133 74.6305 73.5503 75.2788 74.8469C75.9036 76.0966 76.9058 77.1622 78.2345 77.1622C79.5632 77.1622 80.5654 76.0966 81.1902 74.8469C81.8385 73.5503 82.2197 71.8133 82.2197 69.9417C82.2197 68.0702 81.8385 66.3332 81.1902 65.0365C80.5654 63.7869 79.5632 62.7213 78.2345 62.7213C76.9058 62.7213 75.9036 63.7869 75.2788 65.0365C74.6305 66.3332 74.2492 68.0702 74.2492 69.9417Z" stroke="#9CDABC" stroke-width="1.5"/>
</g>
<defs>
<filter id="filter0_d_54_4" x="18" y="0" width="107.528" height="114" filterUnits="userSpaceOnUse" color-interpolation-filters="sRGB">
<feFlood flood-opacity="0" result="BackgroundImageFix"/>
<feColorMatrix in="SourceAlpha" type="matrix" values="0 0 0 0 0 0 0 0 0 0 0 0 0 0 0 0 0 0 127 0" result="hardAlpha"/>
<feOffset/>
<feGaussianBlur stdDeviation="1"/>
<feColorMatrix type="matrix" values="0 0 0 0 1 0 0 0 0 1 0 0 0 0 1 0 0 0 0.2 0"/>
<feBlend mode="normal" in2="BackgroundImageFix" result="effect1_dropShadow_54_4"/>
<feBlend mode="normal" in="SourceGraphic" in2="effect1_dropShadow_54_4" result="shape"/>
</filter>
</defs>
</svg>
