<svg width="20" height="19" viewBox="0 0 20 19" fill="none" xmlns="http://www.w3.org/2000/svg">
<path d="M14.2936 11.6442C13.89 11.5511 13.4873 11.8027 13.3942 12.2064C13.3011 12.61 13.5527 13.0127 13.9564 13.1058L14.2936 11.6442ZM15.4961 12.6914L15.6648 11.9606L15.4961 12.6914ZM4.50386 12.6914L4.6725 13.4222L4.50386 12.6914ZM6.04364 13.1058C6.44725 13.0127 6.69893 12.61 6.60579 12.2064C6.51265 11.8027 6.10996 11.5511 5.70636 11.6442L6.04364 13.1058ZM18.0959 17.25H1.90406V18.75H18.0959V17.25ZM13.9564 13.1058L15.3275 13.4222L15.6648 11.9606L14.2936 11.6442L13.9564 13.1058ZM4.6725 13.4222L6.04364 13.1058L5.70636 11.6442L4.33521 11.9606L4.6725 13.4222ZM1.90406 17.25C1.81897 17.25 1.75 17.181 1.75 17.0959H0.25C0.25 18.0095 0.990546 18.75 1.90406 18.75V17.25ZM18.25 17.0959C18.25 17.181 18.181 17.25 18.0959 17.25V18.75C19.0095 18.75 19.75 18.0095 19.75 17.0959H18.25ZM19.75 17.0959C19.75 14.6418 18.0561 12.5125 15.6648 11.9606L15.3275 13.4222C17.0382 13.817 18.25 15.3403 18.25 17.0959H19.75ZM1.75 17.0959C1.75 15.3403 2.96181 13.817 4.6725 13.4222L4.33521 11.9606C1.94392 12.5125 0.25 14.6418 0.25 17.0959H1.75Z" fill="#3C4158"/>
<path d="M14.3125 5.625C14.3125 8.39367 12.3094 10.5 10 10.5C7.69065 10.5 5.6875 8.39367 5.6875 5.625C5.6875 2.85633 7.69065 0.75 10 0.75C12.3094 0.75 14.3125 2.85633 14.3125 5.625Z" stroke="#3C4158" stroke-width="1.5"/>
</svg>
