<?xml version="1.0" encoding="utf-8"?>
<!-- Generator: Adobe Illustrator 25.4.1, SVG Export Plug-In . SVG Version: 6.00 Build 0)  -->
<svg version="1.1" id="Calque_1" xmlns="http://www.w3.org/2000/svg" xmlns:xlink="http://www.w3.org/1999/xlink" x="0px" y="0px"
	 viewBox="0 0 114.1 113.3" style="enable-background:new 0 0 114.1 113.3;" xml:space="preserve">
<style type="text/css">
	.st0{fill:#9FA2B1;}
</style>
<path class="st0" d="M91.6,52.4c0.1,0.4,0.2,0.6,0.6,0.5c0.5,0,1,0,1.5,0l0.1,0l0.1,0c1.7,0.1,3.4,0.1,5.1,0l0.1,0l0.1,0
	c1.4,0.1,2.9,0,4.3,0c2.7,0,4.4,1.6,4.6,4.3c0,0,0,0.1,0,0.1c-0.3,2.7-1.9,4.2-4.7,4.2c-1.4,0-2.8,0-4.2,0c0,0-0.1,0-0.1,0
	c-1.7,0-3.4,0-5.1,0c0,0-0.1,0-0.1,0c-0.4,0-0.8,0-1.2,0c-0.6-0.1-1,0.2-1,0.8c0,0-0.1,0.1-0.1,0.1c-0.6,1.7-1.6,3.2-2.7,4.7
	c-0.2,0.1-0.4,0.3-0.5,0.5c-1.3,1.4-2.9,2.6-4.6,3.5c-0.1,0-0.2,0.1-0.3,0.1c-1.4,0.6-2.8,1.1-4.3,1.3c-0.2,0-0.4,0-0.5,0.1
	c-1.2,0.1-2.3,0.1-3.5,0c-0.1-0.1-0.2-0.1-0.4-0.1c-2.3-0.3-4.5-1.1-6.4-2.4c0,0-0.1,0-0.1-0.1c-1-0.8-2-1.6-2.9-2.5
	c0,0-0.1-0.1-0.1-0.1c-1.3-1.5-2.3-3.2-3-5.1c0-0.1-0.1-0.3-0.1-0.4c0-0.4-0.3-0.5-0.7-0.5c-1.2,0-2.3,0-3.5,0c0,0-0.1,0-0.1,0
	c-1.7,0-3.3,0-5,0c0,0-0.1,0-0.1,0c-1.7,0-3.3,0-5,0c0,0-0.1,0-0.1,0c-1.7,0-3.4,0-5.1,0c0,0-0.1,0-0.1,0c-1.7,0-3.3,0-5,0
	c0,0-0.1,0-0.1,0c-1.7,0-3.3,0-5,0c0,0-0.1,0-0.1,0c-1.7,0-3.3,0-5,0c0,0-0.1,0-0.1,0c-1.7,0-3.4,0-5.1,0c0,0-0.1,0-0.1,0
	c-1.7,0-3.3,0-5,0c0,0-0.1,0-0.1,0c-1.7,0-3.3,0-5,0c0,0-0.1,0-0.1,0c-1.5-0.3-2.7-0.9-3.4-2.3C6.7,56.3,8.8,53,12.1,53
	c4.7,0,9.4,0,14.2,0c0.3,0,0.6,0,0.9,0l0.1,0l0.1,0c1.7,0.1,3.3,0.1,5,0l0.1,0l0.1,0c1.7,0.1,3.3,0.1,5,0c0,0,0.1,0,0.1,0l0.1,0
	c1.7,0.1,3.3,0.1,5,0c0,0,0.1,0,0.1,0l0.1,0c1.7,0.1,3.4,0.1,5.1,0c0,0,0.1,0,0.1,0l0.1,0c1.7,0.1,3.3,0.1,5,0c0,0,0.1,0,0.1,0
	l0.1,0c1.7,0.1,3.3,0.1,5,0l0.1,0l0.1,0c1.2,0.1,2.4,0,3.5,0c0.3,0,0.5-0.2,0.6-0.4c0.7-2,1.8-3.8,3.2-5.5c0,0,0.1-0.1,0.1-0.1
	c2.2-2.4,4.8-4,7.9-4.8c0.4,0,0.8-0.1,1.1-0.3c1.3-0.2,2.7-0.1,4-0.1c0,0,0,0,0.1,0c0.3,0,0.7,0.1,1,0.1c0.1,0,0.2,0.1,0.3,0.1
	c3.3,0.6,6.2,2.2,8.5,4.7c0.1,0.1,0.2,0.2,0.3,0.2c0.1,0.1,0.1,0.2,0.2,0.3c1.2,1.5,2.1,3.1,2.8,4.9C91.5,52.2,91.6,52.3,91.6,52.4z
	 M73.2,51.4c-1.7,1-2.7,2.5-3.1,4.4c-0.1,0.5-0.4,0.9-0.1,1.4c0,0,0,0,0,0c0,0,0,0.1,0,0.1c-0.3,0.5,0,0.9,0.1,1.4
	c0.4,1.9,1.4,3.4,3.1,4.4c0,0,0.1,0,0.1,0.1c2.3,1.3,4.6,1.3,6.9,0.1c2.3-1.3,3.5-3.4,3.4-6c0-3.2-2.2-6-5.2-6.6l0,0
	C76.6,50.2,74.9,50.4,73.2,51.4C73.3,51.3,73.3,51.4,73.2,51.4z"/>
<path class="st0" d="M42.5,76.8c1.1,0.2,2.1,0.7,3.2,1c0,0,0,0,0,0c0.7,0.4,1.3,0.8,2,1.2c0,0,0.1,0.1,0.1,0.1
	c1.5,1.1,2.8,2.4,3.9,3.9c0,0.1,0.1,0.2,0.1,0.2c0.7,1.2,1.4,2.4,1.8,3.8c0.1,0.5,0.4,0.5,0.8,0.5c4.1,0,8.2,0,12.3,0
	c12.4,0,24.9,0,37.3,0c0,0,0.1,0,0.1,0c0.6,0.1,1.2,0.4,1.8,0.6c0,0,0,0,0,0c0,0.1,0.1,0.2,0.1,0.2c1.6,1.3,2,2.9,1.6,4.9
	c0,0,0,0,0,0c-0.6,1.6-1.8,2.6-3.5,2.9c0,0-0.1,0-0.1,0c-1.7,0-3.3,0-5,0c0,0-0.1,0-0.1,0c-1.7,0-3.4,0-5.1,0c0,0-0.1,0-0.1,0
	c-1.7,0-3.3,0-5,0c0,0-0.1,0-0.1,0c-1.7,0-3.3,0-5,0c0,0-0.1,0-0.1,0c-1.7,0-3.4,0-5.1,0c0,0-0.1,0-0.1,0c-1.7,0-3.3,0-5,0
	c0,0-0.1,0-0.1,0c-1.7,0-3.3,0-5,0c0,0-0.1,0-0.1,0c-1.7,0-3.3,0-5,0c0,0-0.1,0-0.1,0c-1.7,0-3.4,0-5.1,0c0,0-0.1,0-0.1,0
	c-1.2,0-2.3,0-3.5,0c-0.3,0-0.5,0.1-0.6,0.4c-0.2,0.5-0.4,1-0.6,1.5c0,0.1-0.1,0.2-0.1,0.2c-0.8,1.7-1.9,3.3-3.3,4.6
	c-0.2,0.2-0.3,0.4-0.5,0.5c-0.1,0-0.1,0.1-0.2,0.1c-0.4,0.3-0.8,0.7-1.2,1c0,0,0,0,0,0c-0.8,0.4-1.5,0.9-2.3,1.2
	c-2.5,1.2-5.2,1.6-8,1.4c0,0-0.1,0-0.1,0c-3.8-0.4-7.1-2-9.7-4.8c-0.1-0.1-0.2-0.2-0.4-0.3c0,0,0,0,0,0c-0.9-1.2-1.8-2.4-2.4-3.8
	c0-0.1-0.1-0.2-0.1-0.3c0-0.1,0-0.2-0.1-0.3c-0.3-0.5-0.2-1.3-0.7-1.6c-0.5-0.3-1.2-0.1-1.8-0.1c0,0-0.1,0-0.1,0c-1.7,0-3.3,0-5,0
	c0,0-0.1,0-0.1,0c-1.7,0-3.3,0-5,0c0,0-0.1,0-0.1,0c-1.8-0.2-3-1.2-3.7-2.9c0,0,0-0.1,0-0.1c-0.4-1.9,0-3.6,1.6-4.9
	c0.1-0.1,0.2-0.1,0.3-0.2c0.6-0.2,1.2-0.5,1.8-0.5c0,0,0.1,0,0.1,0c3.9,0,7.7,0,11.6,0c0.3,0,0.5-0.1,0.7-0.4c0.5-1.4,1.2-2.8,2-4
	c0,0,0-0.1,0.1-0.1c1.3-1.6,2.6-3.1,4.4-4.2c0.5-0.3,1.1-0.6,1.6-1c0.1,0,0.1-0.1,0.2-0.1c1.6-0.7,3.3-1.1,5-1.4c0,0,0.1,0,0.1,0
	C39.1,76.3,40.7,76.4,42.5,76.8C42.4,76.8,42.4,76.8,42.5,76.8z M38.7,98.7c3.8,0.1,6.9-2.9,7-6.7c0.1-3.8-2.9-7-6.7-7.1
	c-3.9-0.1-7,2.9-7.1,6.7C31.9,95.5,34.9,98.6,38.7,98.7z"/>
<path class="st0" d="M7.9,21.3c0.7-1.7,1.9-2.7,3.7-3c0,0,0.1,0,0.1,0l0.1,0c1.7,0,3.3,0,5,0c0,0,0.1,0,0.1,0c1.7,0,3.3,0,5,0
	c0,0,0.1,0,0.1,0c1.8,0.1,1.8,0.1,2.5-1.6c1.5-3.5,3.9-6.1,7.3-7.9c0.2-0.1,0.3-0.2,0.5-0.3c0,0,0,0,0,0c1.6-0.6,3.3-1.2,5-1.4
	c0,0,0.1,0,0.1,0c1.7-0.1,3.3,0,5,0.3c0,0,0.1,0,0.1,0c2.8,0.7,5.2,2,7.3,4c1.2,1.2,2.1,2.5,3,3.9c0,0.1,0,0.1,0.1,0.2
	c0,0.2,0.1,0.4,0.3,0.6c0,0,0,0.1,0,0.1c0.2,0.5,0.4,1,0.6,1.6c0.1,0.3,0.3,0.4,0.6,0.4c1.2,0,2.4,0,3.5,0c0,0,0.1,0,0.1,0
	c1.7,0,3.4,0,5.1,0c0,0,0.1,0,0.1,0c1.7,0,3.3,0,5,0c0,0,0.1,0,0.1,0c1.7,0,3.3,0,5,0c0,0,0.1,0,0.1,0c1.7,0,3.3,0,5,0
	c0,0,0.1,0,0.1,0c1.7,0,3.4,0,5.1,0c0,0,0.1,0,0.1,0c1.7,0,3.3,0,5,0c0,0,0.1,0,0.1,0c1.7,0,3.3,0,5,0c0,0,0.1,0,0.1,0
	c1.7,0,3.4,0,5.1,0c0,0,0.1,0,0.1,0c1.7,0,3.3,0,5,0c0,0,0.1,0,0.1,0c1.7,0.4,3,1.3,3.6,3c0,0,0,0.1,0,0.1c0.1,0.6,0.2,1.2,0.1,1.8
	c-0.3,2-1.5,3.2-3.7,3.7c0,0-0.1,0-0.1,0c-15.3,0-30.6,0-45.9,0c-1.3,0-2.5,0-3.8,0c-0.2,0-0.5,0-0.6,0.3c-0.5,1.6-1.4,3-2.3,4.5
	c0,0,0,0,0,0c-0.7,0.7-1.2,1.4-1.9,2.1c-1.1,1-2.2,1.9-3.5,2.5c-0.3,0.1-0.5,0.2-0.7,0.5c0,0,0,0,0,0c-0.9,0.3-1.9,0.6-2.8,0.9
	c0,0-0.1,0-0.1,0c-1.6,0.4-3.3,0.4-5,0.4c0,0-0.1,0-0.1,0c-1.3-0.2-2.6-0.5-3.9-0.9c-2.1-0.8-4-2-5.6-3.6c-0.2-0.2-0.4-0.3-0.5-0.5
	c0-0.1-0.1-0.1-0.1-0.2c-1.3-1.5-2.3-3.2-2.9-5.1c-0.2-0.6-0.5-0.7-1-0.7c-3.7,0-7.3,0-11,0c-0.7,0-1.4-0.1-2-0.4
	c-0.1,0-0.2-0.1-0.3-0.1c-1.7-1.2-2.4-2.9-1.9-5C7.9,21.4,7.9,21.3,7.9,21.3z M32.1,21.5c-0.1,0.7-0.1,1.4,0,2.1
	c0,0.2,0,0.4,0.1,0.6c0.1,0.8,0.5,1.5,0.9,2.2c0,0.1,0.1,0.2,0.1,0.2c1,1.4,2.3,2.3,4,2.6c0,0,0,0,0.1,0c1.7,0.4,3.3,0.2,4.8-0.6
	c1-0.5,1.8-1.2,2.3-2.2l0,0c0.2-0.1,0.2-0.2,0.3-0.4c0.8-1.5,1.1-3,0.8-4.7c0,0,0-0.1,0-0.1c-0.4-1.9-1.4-3.4-3.1-4.5
	c0,0-0.1,0-0.1-0.1c-1.6-1-3.2-1.2-5-0.8c-0.3,0-0.7,0.1-0.9,0.3c-2.3,0.8-3.7,2.4-4.2,4.7C32.1,21.1,32.1,21.3,32.1,21.5z"/>
</svg>
