<svg width="164" height="172" viewBox="0 0 164 172" fill="none" xmlns="http://www.w3.org/2000/svg">
<g opacity="0.1">
<mask id="path-1-inside-1_54_6" fill="white">
<path d="M97.201 67.2685L96.163 71.7035L95.125 76.1386C94.7318 77.8175 93.2063 78.9341 91.5038 78.8319L82.327 78.2421C80.6521 81.4347 78.5879 84.3206 76.1345 86.8645L79.618 95.3925C80.2589 96.977 79.6691 98.7778 78.238 99.6625L74.3927 102.049L70.5474 104.436C69.1162 105.324 67.2408 105.053 66.1084 103.775L60.0102 96.8709C56.6407 97.9364 53.1375 98.5065 49.5359 98.593L45.9895 107.078C45.325 108.651 43.6068 109.512 41.9673 109.13L37.5322 108.092L33.0972 107.054C31.4183 106.661 30.3017 105.135 30.4039 103.433L30.9936 94.2562C27.9151 92.6521 25.0645 90.5918 22.5796 88.2406L14.0044 91.7556C12.4199 92.3965 10.6192 91.8067 9.7345 90.3756L7.3479 86.5303L4.96131 82.685C4.07273 81.2538 4.34402 79.3784 5.62185 78.246L12.4671 72.2186C11.433 68.9002 10.7803 65.3773 10.6978 61.7718L2.14223 58.1664C0.569512 57.5019 -0.291561 55.7837 0.0898219 54.1442L1.12781 49.7091L2.1658 45.2741C2.55898 43.5952 4.08452 42.4786 5.78698 42.5808L14.8851 43.1509C16.5208 39.9504 18.5849 37.0645 20.9951 34.5089L17.4801 25.9336C16.8392 24.3491 17.429 22.5484 18.8602 21.6637L22.7055 19.2771L26.5507 16.8905C27.9819 16.0019 29.8574 16.2732 30.9897 17.5511L36.9582 24.4671C40.2766 23.433 43.7995 22.7803 47.4049 22.6978L51.0104 14.1422C51.6748 12.5695 53.393 11.7084 55.0326 12.0898L59.4637 13.1278L63.8987 14.1658C65.5776 14.559 66.6943 16.0845 66.592 17.787L66.0219 26.8851C69.3403 28.5483 72.301 30.6714 74.8763 33.1721L83.4043 29.6885C84.9888 29.0476 86.7896 29.6374 87.6743 31.0685L90.0608 34.9138L92.4474 38.7591C93.336 40.1903 93.0647 42.0657 91.7869 43.1981L84.8827 49.2963C85.9482 52.6658 86.5183 56.1691 86.6048 59.7706L95.0896 63.317C96.623 63.9697 97.4919 65.6486 97.201 67.2685ZM44.4207 80.1647C55.1584 82.6771 65.9 76.0088 68.4124 65.2711C70.9249 54.5334 64.2565 43.7918 53.5188 41.2794C42.7811 38.767 32.0395 45.4353 29.5271 56.173C27.0186 66.9107 33.6869 77.6523 44.4207 80.1647ZM141.445 106.386V109.185V111.985C141.445 113.042 140.69 113.927 139.656 114.1L134.085 115.032C133.531 117.175 132.697 119.192 131.588 121.055L134.864 125.667C135.469 126.524 135.367 127.684 134.635 128.416L132.67 130.381L130.704 132.347C129.972 133.079 128.812 133.181 127.955 132.575L123.343 129.3C121.48 130.409 119.463 131.243 117.32 131.797L116.388 137.368C116.211 138.402 115.303 139.157 114.273 139.157H111.473H108.674C107.616 139.157 106.732 138.402 106.559 137.368L105.627 131.797C103.559 131.266 101.569 130.437 99.7527 129.379L95.1132 132.682C94.2561 133.287 93.0962 133.185 92.3649 132.454L90.399 130.488L88.4331 128.522C87.7018 127.79 87.5995 126.631 88.205 125.773L91.4566 121.213C90.3715 119.372 89.4907 117.355 88.9364 115.213L83.3139 114.253C82.2798 114.076 81.5249 113.168 81.5249 112.138V109.339V106.539C81.5249 105.481 82.2798 104.597 83.3139 104.42L88.8341 103.488C89.3649 101.345 90.1945 99.3282 91.2797 97.4646L87.977 92.8251C87.3715 91.9679 87.4737 90.8081 88.205 90.0768L90.1709 88.1109L92.1368 86.145C92.8681 85.4137 94.028 85.3114 94.8852 85.9169L99.4224 89.2196C101.263 88.1345 103.28 87.2537 105.422 86.6994L106.382 81.0769C106.559 80.0428 107.467 79.2879 108.497 79.2879H111.296H114.096C115.153 79.2879 116.038 80.0428 116.211 81.0769L117.143 86.5971C119.36 87.1279 121.429 87.985 123.32 89.1174L127.932 85.8422C128.789 85.2367 129.949 85.339 130.68 86.0703L132.646 88.0362L134.612 90.0021C135.343 90.7334 135.445 91.8932 134.84 92.7504L131.565 97.3624C132.674 99.226 133.507 101.243 134.061 103.386L139.633 104.318C140.639 104.495 141.394 105.379 141.445 106.386ZM111.686 121.484C118.46 121.484 123.949 115.995 123.949 109.221C123.949 102.446 118.456 96.9574 111.686 96.9574C104.915 96.9574 99.4224 102.446 99.4224 109.221C99.4224 115.995 104.915 121.484 111.686 121.484ZM86.6284 139.633L86.6913 142.334L86.7542 145.035C86.7778 146.058 86.0701 146.926 85.0753 147.119L79.7203 148.145C79.2327 150.225 78.4778 152.191 77.4516 154.015L80.7189 158.392C81.3205 159.205 81.2497 160.326 80.5616 161.049L78.7098 162.992L76.8579 164.934C76.1699 165.657 75.0532 165.779 74.2118 165.217L69.6863 162.162C67.9131 163.275 65.9865 164.124 63.9302 164.706L63.1557 170.1C63.0102 171.103 62.1491 171.85 61.1544 171.874L58.4532 171.937L55.7521 171.999C54.7298 172.023 53.8609 171.315 53.6683 170.321L52.6421 164.965C50.6368 164.502 48.6945 163.747 46.9213 162.764L42.5217 166.055C41.7078 166.656 40.5872 166.585 39.8638 165.897L37.9215 164.045L35.9792 162.194C35.2557 161.505 35.1338 160.389 35.6961 159.547L38.7275 155.069C37.6384 153.32 36.7419 151.393 36.16 149.337L30.7145 148.542C29.7119 148.397 28.9648 147.536 28.9413 146.541L28.8784 143.84L28.8155 141.139C28.7919 140.117 29.4996 139.248 30.4943 139.055L35.7983 138.029C36.2583 135.949 37.0171 133.983 38.0197 132.159L34.7288 127.759C34.1273 126.945 34.1981 125.825 34.8861 125.101L36.738 123.159L38.5899 121.216C39.2779 120.493 40.3945 120.371 41.2359 120.933L45.6907 124.016C47.4403 122.927 49.3669 122.03 51.4232 121.448L52.2174 116.003C52.3629 115 53.224 114.253 54.2187 114.23L56.9198 114.167L59.621 114.104C60.6432 114.08 61.5122 114.788 61.7048 115.783L62.731 121.087C64.8817 121.547 66.8987 122.325 68.7466 123.379L73.1227 120.112C73.9366 119.51 75.0572 119.581 75.7806 120.269L77.7229 122.121L79.6652 123.973C80.3887 124.661 80.5105 125.777 79.9483 126.619L76.8933 131.144C78.006 132.917 78.8553 134.844 79.4372 136.9L84.8316 137.675C85.8067 137.824 86.5576 138.662 86.6284 139.633ZM58.2606 154.88C64.7952 154.727 69.9694 149.301 69.8161 142.767C69.6628 136.232 64.2369 131.058 57.7023 131.211C51.1676 131.364 45.9934 136.79 46.1467 143.325C46.3001 149.863 51.722 155.034 58.2606 154.88Z"/>
</mask>
<path d="M97.201 67.2685L96.163 71.7035L95.125 76.1386C94.7318 77.8175 93.2063 78.9341 91.5038 78.8319L82.327 78.2421C80.6521 81.4347 78.5879 84.3206 76.1345 86.8645L79.618 95.3925C80.2589 96.977 79.6691 98.7778 78.238 99.6625L74.3927 102.049L70.5474 104.436C69.1162 105.324 67.2408 105.053 66.1084 103.775L60.0102 96.8709C56.6407 97.9364 53.1375 98.5065 49.5359 98.593L45.9895 107.078C45.325 108.651 43.6068 109.512 41.9673 109.13L37.5322 108.092L33.0972 107.054C31.4183 106.661 30.3017 105.135 30.4039 103.433L30.9936 94.2562C27.9151 92.6521 25.0645 90.5918 22.5796 88.2406L14.0044 91.7556C12.4199 92.3965 10.6192 91.8067 9.7345 90.3756L7.3479 86.5303L4.96131 82.685C4.07273 81.2538 4.34402 79.3784 5.62185 78.246L12.4671 72.2186C11.433 68.9002 10.7803 65.3773 10.6978 61.7718L2.14223 58.1664C0.569512 57.5019 -0.291561 55.7837 0.0898219 54.1442L1.12781 49.7091L2.1658 45.2741C2.55898 43.5952 4.08452 42.4786 5.78698 42.5808L14.8851 43.1509C16.5208 39.9504 18.5849 37.0645 20.9951 34.5089L17.4801 25.9336C16.8392 24.3491 17.429 22.5484 18.8602 21.6637L22.7055 19.2771L26.5507 16.8905C27.9819 16.0019 29.8574 16.2732 30.9897 17.5511L36.9582 24.4671C40.2766 23.433 43.7995 22.7803 47.4049 22.6978L51.0104 14.1422C51.6748 12.5695 53.393 11.7084 55.0326 12.0898L59.4637 13.1278L63.8987 14.1658C65.5776 14.559 66.6943 16.0845 66.592 17.787L66.0219 26.8851C69.3403 28.5483 72.301 30.6714 74.8763 33.1721L83.4043 29.6885C84.9888 29.0476 86.7896 29.6374 87.6743 31.0685L90.0608 34.9138L92.4474 38.7591C93.336 40.1903 93.0647 42.0657 91.7869 43.1981L84.8827 49.2963C85.9482 52.6658 86.5183 56.1691 86.6048 59.7706L95.0896 63.317C96.623 63.9697 97.4919 65.6486 97.201 67.2685ZM44.4207 80.1647C55.1584 82.6771 65.9 76.0088 68.4124 65.2711C70.9249 54.5334 64.2565 43.7918 53.5188 41.2794C42.7811 38.767 32.0395 45.4353 29.5271 56.173C27.0186 66.9107 33.6869 77.6523 44.4207 80.1647ZM141.445 106.386V109.185V111.985C141.445 113.042 140.69 113.927 139.656 114.1L134.085 115.032C133.531 117.175 132.697 119.192 131.588 121.055L134.864 125.667C135.469 126.524 135.367 127.684 134.635 128.416L132.67 130.381L130.704 132.347C129.972 133.079 128.812 133.181 127.955 132.575L123.343 129.3C121.48 130.409 119.463 131.243 117.32 131.797L116.388 137.368C116.211 138.402 115.303 139.157 114.273 139.157H111.473H108.674C107.616 139.157 106.732 138.402 106.559 137.368L105.627 131.797C103.559 131.266 101.569 130.437 99.7527 129.379L95.1132 132.682C94.2561 133.287 93.0962 133.185 92.3649 132.454L90.399 130.488L88.4331 128.522C87.7018 127.79 87.5995 126.631 88.205 125.773L91.4566 121.213C90.3715 119.372 89.4907 117.355 88.9364 115.213L83.3139 114.253C82.2798 114.076 81.5249 113.168 81.5249 112.138V109.339V106.539C81.5249 105.481 82.2798 104.597 83.3139 104.42L88.8341 103.488C89.3649 101.345 90.1945 99.3282 91.2797 97.4646L87.977 92.8251C87.3715 91.9679 87.4737 90.8081 88.205 90.0768L90.1709 88.1109L92.1368 86.145C92.8681 85.4137 94.028 85.3114 94.8852 85.9169L99.4224 89.2196C101.263 88.1345 103.28 87.2537 105.422 86.6994L106.382 81.0769C106.559 80.0428 107.467 79.2879 108.497 79.2879H111.296H114.096C115.153 79.2879 116.038 80.0428 116.211 81.0769L117.143 86.5971C119.36 87.1279 121.429 87.985 123.32 89.1174L127.932 85.8422C128.789 85.2367 129.949 85.339 130.68 86.0703L132.646 88.0362L134.612 90.0021C135.343 90.7334 135.445 91.8932 134.84 92.7504L131.565 97.3624C132.674 99.226 133.507 101.243 134.061 103.386L139.633 104.318C140.639 104.495 141.394 105.379 141.445 106.386ZM111.686 121.484C118.46 121.484 123.949 115.995 123.949 109.221C123.949 102.446 118.456 96.9574 111.686 96.9574C104.915 96.9574 99.4224 102.446 99.4224 109.221C99.4224 115.995 104.915 121.484 111.686 121.484ZM86.6284 139.633L86.6913 142.334L86.7542 145.035C86.7778 146.058 86.0701 146.926 85.0753 147.119L79.7203 148.145C79.2327 150.225 78.4778 152.191 77.4516 154.015L80.7189 158.392C81.3205 159.205 81.2497 160.326 80.5616 161.049L78.7098 162.992L76.8579 164.934C76.1699 165.657 75.0532 165.779 74.2118 165.217L69.6863 162.162C67.9131 163.275 65.9865 164.124 63.9302 164.706L63.1557 170.1C63.0102 171.103 62.1491 171.85 61.1544 171.874L58.4532 171.937L55.7521 171.999C54.7298 172.023 53.8609 171.315 53.6683 170.321L52.6421 164.965C50.6368 164.502 48.6945 163.747 46.9213 162.764L42.5217 166.055C41.7078 166.656 40.5872 166.585 39.8638 165.897L37.9215 164.045L35.9792 162.194C35.2557 161.505 35.1338 160.389 35.6961 159.547L38.7275 155.069C37.6384 153.32 36.7419 151.393 36.16 149.337L30.7145 148.542C29.7119 148.397 28.9648 147.536 28.9413 146.541L28.8784 143.84L28.8155 141.139C28.7919 140.117 29.4996 139.248 30.4943 139.055L35.7983 138.029C36.2583 135.949 37.0171 133.983 38.0197 132.159L34.7288 127.759C34.1273 126.945 34.1981 125.825 34.8861 125.101L36.738 123.159L38.5899 121.216C39.2779 120.493 40.3945 120.371 41.2359 120.933L45.6907 124.016C47.4403 122.927 49.3669 122.03 51.4232 121.448L52.2174 116.003C52.3629 115 53.224 114.253 54.2187 114.23L56.9198 114.167L59.621 114.104C60.6432 114.08 61.5122 114.788 61.7048 115.783L62.731 121.087C64.8817 121.547 66.8987 122.325 68.7466 123.379L73.1227 120.112C73.9366 119.51 75.0572 119.581 75.7806 120.269L77.7229 122.121L79.6652 123.973C80.3887 124.661 80.5105 125.777 79.9483 126.619L76.8933 131.144C78.006 132.917 78.8553 134.844 79.4372 136.9L84.8316 137.675C85.8067 137.824 86.5576 138.662 86.6284 139.633ZM58.2606 154.88C64.7952 154.727 69.9694 149.301 69.8161 142.767C69.6628 136.232 64.2369 131.058 57.7023 131.211C51.1676 131.364 45.9934 136.79 46.1467 143.325C46.3001 149.863 51.722 155.034 58.2606 154.88Z" stroke="white" mask="url(#path-1-inside-1_54_6)"/>
</g>
<g filter="url(#filter0_d_54_6)">
<mask id="path-2-inside-2_54_6" fill="white">
<path d="M117.201 57.2685L116.163 61.7035L115.125 66.1386C114.732 67.8175 113.206 68.9341 111.504 68.8319L102.327 68.2421C100.652 71.4347 98.5879 74.3206 96.1345 76.8645L99.618 85.3925C100.259 86.977 99.6691 88.7778 98.238 89.6625L94.3927 92.049L90.5474 94.4356C89.1162 95.3242 87.2408 95.0529 86.1084 93.7751L80.0102 86.8709C76.6407 87.9364 73.1375 88.5065 69.5359 88.593L65.9895 97.0778C65.325 98.6505 63.6068 99.5116 61.9673 99.1302L57.5322 98.0922L53.0972 97.0542C51.4183 96.661 50.3017 95.1355 50.4039 93.433L50.9936 84.2562C47.9151 82.6521 45.0645 80.5918 42.5796 78.2406L34.0044 81.7556C32.4199 82.3965 30.6192 81.8067 29.7345 80.3756L27.3479 76.5303L24.9613 72.685C24.0727 71.2538 24.344 69.3784 25.6218 68.246L32.4671 62.2186C31.433 58.9002 30.7803 55.3773 30.6978 51.7718L22.1422 48.1664C20.5695 47.5019 19.7084 45.7837 20.0898 44.1442L21.1278 39.7091L22.1658 35.2741C22.559 33.5952 24.0845 32.4786 25.787 32.5808L34.8851 33.1509C36.5208 29.9504 38.5849 27.0645 40.9951 24.5089L37.4801 15.9336C36.8392 14.3491 37.429 12.5484 38.8602 11.6637L42.7055 9.27712L46.5507 6.89053C47.9819 6.00195 49.8574 6.27324 50.9897 7.55107L56.9582 14.4671C60.2766 13.433 63.7995 12.7803 67.4049 12.6978L71.0104 4.14222C71.6748 2.5695 73.393 1.70844 75.0326 2.08982L79.4637 3.12781L83.8987 4.16581C85.5776 4.55898 86.6943 6.08452 86.592 7.78698L86.0219 16.8851C89.3403 18.5483 92.301 20.6714 94.8763 23.1721L103.404 19.6885C104.989 19.0476 106.79 19.6374 107.674 21.0685L110.061 24.9138L112.447 28.7591C113.336 30.1903 113.065 32.0657 111.787 33.1981L104.883 39.2963C105.948 42.6658 106.518 46.1691 106.605 49.7706L115.09 53.317C116.623 53.9697 117.492 55.6486 117.201 57.2685ZM64.4207 70.1647C75.1584 72.6771 85.9 66.0088 88.4124 55.2711C90.9249 44.5334 84.2565 33.7918 73.5188 31.2794C62.7811 28.767 52.0395 35.4353 49.5271 46.173C47.0186 56.9107 53.6869 67.6523 64.4207 70.1647ZM161.445 96.3858V99.1852V101.985C161.445 103.042 160.69 103.927 159.656 104.1L154.085 105.032C153.531 107.175 152.697 109.192 151.588 111.055L154.864 115.667C155.469 116.524 155.367 117.684 154.635 118.416L152.67 120.381L150.704 122.347C149.972 123.079 148.812 123.181 147.955 122.575L143.343 119.3C141.48 120.409 139.463 121.243 137.32 121.797L136.388 127.368C136.211 128.402 135.303 129.157 134.273 129.157H131.473H128.674C127.616 129.157 126.732 128.402 126.559 127.368L125.627 121.797C123.559 121.266 121.569 120.437 119.753 119.379L115.113 122.682C114.256 123.287 113.096 123.185 112.365 122.454L110.399 120.488L108.433 118.522C107.702 117.79 107.6 116.631 108.205 115.773L111.457 111.213C110.371 109.372 109.491 107.355 108.936 105.213L103.314 104.253C102.28 104.076 101.525 103.168 101.525 102.138V99.3386V96.5391C101.525 95.4815 102.28 94.5968 103.314 94.4199L108.834 93.4881C109.365 91.3453 110.195 89.3282 111.28 87.4646L107.977 82.8251C107.371 81.9679 107.474 80.8081 108.205 80.0768L110.171 78.1109L112.137 76.145C112.868 75.4137 114.028 75.3114 114.885 75.9169L119.422 79.2196C121.263 78.1345 123.28 77.2537 125.422 76.6994L126.382 71.0769C126.559 70.0428 127.467 69.2879 128.497 69.2879H131.296H134.096C135.153 69.2879 136.038 70.0428 136.211 71.0769L137.143 76.5971C139.36 77.1279 141.429 77.985 143.32 79.1174L147.932 75.8422C148.789 75.2367 149.949 75.339 150.68 76.0703L152.646 78.0362L154.612 80.0021C155.343 80.7334 155.445 81.8932 154.84 82.7504L151.565 87.3624C152.674 89.226 153.507 91.243 154.061 93.3858L159.633 94.3177C160.639 94.4946 161.394 95.3793 161.445 96.3858ZM131.686 111.484C138.46 111.484 143.949 105.995 143.949 99.2206C143.949 92.4462 138.456 86.9574 131.686 86.9574C124.915 86.9574 119.422 92.4462 119.422 99.2206C119.422 105.995 124.915 111.484 131.686 111.484ZM106.628 129.633L106.691 132.334L106.754 135.035C106.778 136.058 106.07 136.926 105.075 137.119L99.7203 138.145C99.2327 140.225 98.4778 142.191 97.4516 144.015L100.719 148.392C101.32 149.205 101.25 150.326 100.562 151.049L98.7098 152.992L96.8579 154.934C96.1699 155.657 95.0532 155.779 94.2118 155.217L89.6863 152.162C87.9131 153.275 85.9865 154.124 83.9302 154.706L83.1557 160.1C83.0102 161.103 82.1491 161.85 81.1544 161.874L78.4532 161.937L75.7521 161.999C74.7298 162.023 73.8609 161.315 73.6683 160.321L72.6421 154.965C70.6368 154.502 68.6945 153.747 66.9213 152.764L62.5217 156.055C61.7078 156.656 60.5872 156.585 59.8638 155.897L57.9215 154.045L55.9792 152.194C55.2557 151.505 55.1338 150.389 55.6961 149.547L58.7275 145.069C57.6384 143.32 56.7419 141.393 56.16 139.337L50.7145 138.542C49.7119 138.397 48.9648 137.536 48.9413 136.541L48.8784 133.84L48.8155 131.139C48.7919 130.117 49.4996 129.248 50.4943 129.055L55.7983 128.029C56.2583 125.949 57.0171 123.983 58.0197 122.159L54.7288 117.759C54.1273 116.945 54.1981 115.825 54.8861 115.101L56.738 113.159L58.5899 111.216C59.2779 110.493 60.3945 110.371 61.2359 110.933L65.6907 114.016C67.4403 112.927 69.3669 112.03 71.4232 111.448L72.2174 106.003C72.3629 105 73.224 104.253 74.2187 104.23L76.9198 104.167L79.621 104.104C80.6432 104.08 81.5122 104.788 81.7048 105.783L82.731 111.087C84.8817 111.547 86.8987 112.325 88.7466 113.379L93.1227 110.112C93.9366 109.51 95.0572 109.581 95.7806 110.269L97.7229 112.121L99.6652 113.973C100.389 114.661 100.511 115.777 99.9483 116.619L96.8933 121.144C98.006 122.917 98.8553 124.844 99.4372 126.9L104.832 127.675C105.807 127.824 106.558 128.662 106.628 129.633ZM78.2606 144.88C84.7952 144.727 89.9694 139.301 89.8161 132.767C89.6628 126.232 84.2369 121.058 77.7023 121.211C71.1676 121.364 65.9934 126.79 66.1467 133.325C66.3001 139.863 71.722 145.034 78.2606 144.88Z"/>
</mask>
<path d="M117.201 57.2685L116.163 61.7035L115.125 66.1386C114.732 67.8175 113.206 68.9341 111.504 68.8319L102.327 68.2421C100.652 71.4347 98.5879 74.3206 96.1345 76.8645L99.618 85.3925C100.259 86.977 99.6691 88.7778 98.238 89.6625L94.3927 92.049L90.5474 94.4356C89.1162 95.3242 87.2408 95.0529 86.1084 93.7751L80.0102 86.8709C76.6407 87.9364 73.1375 88.5065 69.5359 88.593L65.9895 97.0778C65.325 98.6505 63.6068 99.5116 61.9673 99.1302L57.5322 98.0922L53.0972 97.0542C51.4183 96.661 50.3017 95.1355 50.4039 93.433L50.9936 84.2562C47.9151 82.6521 45.0645 80.5918 42.5796 78.2406L34.0044 81.7556C32.4199 82.3965 30.6192 81.8067 29.7345 80.3756L27.3479 76.5303L24.9613 72.685C24.0727 71.2538 24.344 69.3784 25.6218 68.246L32.4671 62.2186C31.433 58.9002 30.7803 55.3773 30.6978 51.7718L22.1422 48.1664C20.5695 47.5019 19.7084 45.7837 20.0898 44.1442L21.1278 39.7091L22.1658 35.2741C22.559 33.5952 24.0845 32.4786 25.787 32.5808L34.8851 33.1509C36.5208 29.9504 38.5849 27.0645 40.9951 24.5089L37.4801 15.9336C36.8392 14.3491 37.429 12.5484 38.8602 11.6637L42.7055 9.27712L46.5507 6.89053C47.9819 6.00195 49.8574 6.27324 50.9897 7.55107L56.9582 14.4671C60.2766 13.433 63.7995 12.7803 67.4049 12.6978L71.0104 4.14222C71.6748 2.5695 73.393 1.70844 75.0326 2.08982L79.4637 3.12781L83.8987 4.16581C85.5776 4.55898 86.6943 6.08452 86.592 7.78698L86.0219 16.8851C89.3403 18.5483 92.301 20.6714 94.8763 23.1721L103.404 19.6885C104.989 19.0476 106.79 19.6374 107.674 21.0685L110.061 24.9138L112.447 28.7591C113.336 30.1903 113.065 32.0657 111.787 33.1981L104.883 39.2963C105.948 42.6658 106.518 46.1691 106.605 49.7706L115.09 53.317C116.623 53.9697 117.492 55.6486 117.201 57.2685ZM64.4207 70.1647C75.1584 72.6771 85.9 66.0088 88.4124 55.2711C90.9249 44.5334 84.2565 33.7918 73.5188 31.2794C62.7811 28.767 52.0395 35.4353 49.5271 46.173C47.0186 56.9107 53.6869 67.6523 64.4207 70.1647ZM161.445 96.3858V99.1852V101.985C161.445 103.042 160.69 103.927 159.656 104.1L154.085 105.032C153.531 107.175 152.697 109.192 151.588 111.055L154.864 115.667C155.469 116.524 155.367 117.684 154.635 118.416L152.67 120.381L150.704 122.347C149.972 123.079 148.812 123.181 147.955 122.575L143.343 119.3C141.48 120.409 139.463 121.243 137.32 121.797L136.388 127.368C136.211 128.402 135.303 129.157 134.273 129.157H131.473H128.674C127.616 129.157 126.732 128.402 126.559 127.368L125.627 121.797C123.559 121.266 121.569 120.437 119.753 119.379L115.113 122.682C114.256 123.287 113.096 123.185 112.365 122.454L110.399 120.488L108.433 118.522C107.702 117.79 107.6 116.631 108.205 115.773L111.457 111.213C110.371 109.372 109.491 107.355 108.936 105.213L103.314 104.253C102.28 104.076 101.525 103.168 101.525 102.138V99.3386V96.5391C101.525 95.4815 102.28 94.5968 103.314 94.4199L108.834 93.4881C109.365 91.3453 110.195 89.3282 111.28 87.4646L107.977 82.8251C107.371 81.9679 107.474 80.8081 108.205 80.0768L110.171 78.1109L112.137 76.145C112.868 75.4137 114.028 75.3114 114.885 75.9169L119.422 79.2196C121.263 78.1345 123.28 77.2537 125.422 76.6994L126.382 71.0769C126.559 70.0428 127.467 69.2879 128.497 69.2879H131.296H134.096C135.153 69.2879 136.038 70.0428 136.211 71.0769L137.143 76.5971C139.36 77.1279 141.429 77.985 143.32 79.1174L147.932 75.8422C148.789 75.2367 149.949 75.339 150.68 76.0703L152.646 78.0362L154.612 80.0021C155.343 80.7334 155.445 81.8932 154.84 82.7504L151.565 87.3624C152.674 89.226 153.507 91.243 154.061 93.3858L159.633 94.3177C160.639 94.4946 161.394 95.3793 161.445 96.3858ZM131.686 111.484C138.46 111.484 143.949 105.995 143.949 99.2206C143.949 92.4462 138.456 86.9574 131.686 86.9574C124.915 86.9574 119.422 92.4462 119.422 99.2206C119.422 105.995 124.915 111.484 131.686 111.484ZM106.628 129.633L106.691 132.334L106.754 135.035C106.778 136.058 106.07 136.926 105.075 137.119L99.7203 138.145C99.2327 140.225 98.4778 142.191 97.4516 144.015L100.719 148.392C101.32 149.205 101.25 150.326 100.562 151.049L98.7098 152.992L96.8579 154.934C96.1699 155.657 95.0532 155.779 94.2118 155.217L89.6863 152.162C87.9131 153.275 85.9865 154.124 83.9302 154.706L83.1557 160.1C83.0102 161.103 82.1491 161.85 81.1544 161.874L78.4532 161.937L75.7521 161.999C74.7298 162.023 73.8609 161.315 73.6683 160.321L72.6421 154.965C70.6368 154.502 68.6945 153.747 66.9213 152.764L62.5217 156.055C61.7078 156.656 60.5872 156.585 59.8638 155.897L57.9215 154.045L55.9792 152.194C55.2557 151.505 55.1338 150.389 55.6961 149.547L58.7275 145.069C57.6384 143.32 56.7419 141.393 56.16 139.337L50.7145 138.542C49.7119 138.397 48.9648 137.536 48.9413 136.541L48.8784 133.84L48.8155 131.139C48.7919 130.117 49.4996 129.248 50.4943 129.055L55.7983 128.029C56.2583 125.949 57.0171 123.983 58.0197 122.159L54.7288 117.759C54.1273 116.945 54.1981 115.825 54.8861 115.101L56.738 113.159L58.5899 111.216C59.2779 110.493 60.3945 110.371 61.2359 110.933L65.6907 114.016C67.4403 112.927 69.3669 112.03 71.4232 111.448L72.2174 106.003C72.3629 105 73.224 104.253 74.2187 104.23L76.9198 104.167L79.621 104.104C80.6432 104.08 81.5122 104.788 81.7048 105.783L82.731 111.087C84.8817 111.547 86.8987 112.325 88.7466 113.379L93.1227 110.112C93.9366 109.51 95.0572 109.581 95.7806 110.269L97.7229 112.121L99.6652 113.973C100.389 114.661 100.511 115.777 99.9483 116.619L96.8933 121.144C98.006 122.917 98.8553 124.844 99.4372 126.9L104.832 127.675C105.807 127.824 106.558 128.662 106.628 129.633ZM78.2606 144.88C84.7952 144.727 89.9694 139.301 89.8161 132.767C89.6628 126.232 84.2369 121.058 77.7023 121.211C71.1676 121.364 65.9934 126.79 66.1467 133.325C66.3001 139.863 71.722 145.034 78.2606 144.88Z" stroke="#FAA08A" stroke-width="3" mask="url(#path-2-inside-2_54_6)"/>
</g>
<defs>
<filter id="filter0_d_54_6" x="18" y="0" width="145.445" height="164" filterUnits="userSpaceOnUse" color-interpolation-filters="sRGB">
<feFlood flood-opacity="0" result="BackgroundImageFix"/>
<feColorMatrix in="SourceAlpha" type="matrix" values="0 0 0 0 0 0 0 0 0 0 0 0 0 0 0 0 0 0 127 0" result="hardAlpha"/>
<feOffset/>
<feGaussianBlur stdDeviation="1"/>
<feColorMatrix type="matrix" values="0 0 0 0 1 0 0 0 0 1 0 0 0 0 1 0 0 0 0.2 0"/>
<feBlend mode="normal" in2="BackgroundImageFix" result="effect1_dropShadow_54_6"/>
<feBlend mode="normal" in="SourceGraphic" in2="effect1_dropShadow_54_6" result="shape"/>
</filter>
</defs>
</svg>
